# xmcd
#
# Track frame offsets:
#	150
#	17988
#	38649
#	60071
#	80102
#	101007
#	129151
#	155157
#	168452
#	183859
#	203941
#	222580
#	239769
#	260339
#	285667
#	303601
#
# Disc length: 4300 seconds
#
# Revision: 1
# Processed by: cddbd v1.5.1PL0 Copyright (c) Steve Scherf et al.
# Submitted via: CDex 1.50Beta5
#
DISCID=e610ca10
DTITLE=さまざまなアーティスト - DISCO NIGHTS 3 The Ballad
DYEAR=1900
DGENRE=Soul
TTITLE0=Grover Washington Jr. with Bill Withers/Just the two of us
TTITLE1=Maurice White/I need you
TTITLE2=Billy Paul/Me and Mrs.Jones
TTITLE3=Earth,wind and fire/After the love has gone
TTITLE4=Manhattans/Shining star
TTITLE5=Heatwave/Always and forever
TTITLE6=Earth,wind and fire/That's the way of the world
TTITLE7=Introducers/Together
TTITLE8=Harold Melvin and the blue notes/If you don't know me by now
TTITLE9=Manhattans/Kiss and say goodbye
TTITLE10=Tyrone Daves/In the mood
TTITLE11=Stanly Clarke/George Duke/Sweet baby
TTITLE12=Chanpaign/How 'bout us
TTITLE13=The Isley brothers/Between the sheets
TTITLE14=Marvin Gaye/Sexual healing
TTITLE15=Boz Scaggs/We're all alone
EXTD=
EXTT0=
EXTT1=
EXTT2=
EXTT3=
EXTT4=
EXTT5=
EXTT6=
EXTT7=
EXTT8=
EXTT9=
EXTT10=
EXTT11=
EXTT12=
EXTT13=
EXTT14=
EXTT15=
PLAYORDER=
